<svg width="300" height="93" viewBox="0 0 300 93" fill="none" xmlns="http://www.w3.org/2000/svg">
<path d="M137.428 27.83C138.808 27.83 140.015 28.052 141.05 28.496C142.085 28.964 142.947 29.5923 143.636 30.381C144.326 31.169 144.856 32.0927 145.226 33.152C145.595 34.236 145.779 35.4183 145.779 36.699V54.843H142.454V38.141C142.454 37.2043 142.392 36.2927 142.269 35.406C142.146 34.4947 141.912 33.6817 141.567 32.967C141.198 32.2777 140.68 31.711 140.015 31.267C139.375 30.8483 138.5 30.639 137.391 30.639C136.011 30.639 134.841 30.9223 133.881 31.489C132.945 32.0557 132.169 32.807 131.553 33.743C130.962 34.679 130.53 35.7507 130.259 36.958C129.964 38.1647 129.816 39.384 129.816 40.616V54.843H126.564V38.141C126.564 37.1797 126.502 36.231 126.379 35.295C126.256 34.3837 125.998 33.583 125.603 32.893C125.184 32.2037 124.606 31.6617 123.867 31.267C123.128 30.8483 122.13 30.639 120.873 30.639C119.716 30.639 118.693 30.9223 117.806 31.489C116.919 32.0557 116.193 32.807 115.626 33.743C115.059 34.679 114.628 35.7507 114.333 36.958C114.037 38.1647 113.889 39.384 113.889 40.616V54.843H110.638V28.46H113.188C113.237 29.1253 113.298 29.766 113.372 30.382C113.445 30.8993 113.495 31.4043 113.52 31.897C113.569 32.3897 113.606 32.7467 113.63 32.968C113.951 32.4013 114.296 31.8223 114.665 31.231C115.06 30.6157 115.577 30.0617 116.217 29.569C116.833 29.0757 117.621 28.669 118.582 28.349C119.519 28.0043 120.701 27.832 122.13 27.832C123.608 27.832 124.79 28.1277 125.677 28.719C126.588 29.3103 127.278 29.9507 127.747 30.64C128.24 31.33 128.56 31.9707 128.707 32.562L128.966 33.412C129.656 31.7367 130.752 30.3817 132.255 29.347C133.733 28.337 135.457 27.832 137.428 27.832V27.83ZM163.295 27.83C163.615 27.83 164.046 27.855 164.588 27.905C165.155 27.9297 165.746 28.0403 166.362 28.237C167.002 28.4097 167.655 28.7053 168.321 29.124C168.986 29.518 169.577 30.06 170.094 30.75C170.636 31.44 171.079 32.3023 171.424 33.337C171.769 34.3963 171.942 35.6897 171.942 37.217V54.843H169.134L168.838 50.593L168.358 51.37C168.062 51.8873 167.581 52.454 166.916 53.07C166.276 53.71 165.439 54.2767 164.404 54.77C163.394 55.262 162.162 55.508 160.708 55.508C157.851 55.508 155.609 54.8183 153.983 53.439C152.332 52.035 151.593 49.9903 151.766 47.305C151.938 44.2503 153.367 42.033 156.052 40.653C158.737 39.2737 162.925 38.6457 168.616 38.769V37.143C168.616 35.3937 168.357 34.0633 167.84 33.152C167.323 32.2653 166.719 31.637 166.03 31.267C165.34 30.9223 164.675 30.7377 164.034 30.713C163.369 30.6883 162.901 30.676 162.63 30.676C161.349 30.676 160.228 30.7993 159.267 31.046C158.306 31.2927 157.493 31.5513 156.828 31.822C156.04 32.1667 155.375 32.5237 154.833 32.893V29.642C155.646 29.346 156.509 29.0503 157.42 28.755C158.208 28.533 159.107 28.3233 160.117 28.126C161.127 27.9293 162.186 27.831 163.295 27.831V27.83ZM160.561 52.737C162.458 52.737 163.948 52.392 165.031 51.702C166.116 51.0367 166.929 50.199 167.471 49.189C168.013 48.1543 168.345 47.0707 168.468 45.938C168.567 44.78 168.616 43.696 168.616 42.686V41.614H165.696C165.007 41.614 164.071 41.6633 162.889 41.762C161.706 41.8853 160.561 42.144 159.452 42.538C158.319 42.9567 157.345 43.5357 156.532 44.275C155.744 45.0137 155.35 46.0237 155.35 47.305C155.35 49.2263 155.83 50.606 156.791 51.444C157.776 52.306 159.033 52.737 160.561 52.737V52.737ZM191.49 27.831C193.116 27.831 194.483 28.0897 195.592 28.607C196.7 29.1243 197.599 29.8877 198.289 30.897C198.979 31.883 199.472 33.115 199.767 34.593C200.087 36.0463 200.247 37.7093 200.247 39.582V54.843H196.996V39.803C196.996 36.6497 196.565 34.3463 195.702 32.893C194.84 31.415 193.313 30.6637 191.12 30.639C189.741 30.639 188.521 30.8857 187.462 31.379C186.403 31.871 185.503 32.5977 184.764 33.559C184.001 34.495 183.434 35.6403 183.064 36.995C182.695 38.3497 182.51 39.8277 182.51 41.429V54.843H179.222V28.46H182.03L182.51 32.894C183.323 31.342 184.506 30.1103 186.058 29.199C187.61 28.2877 189.421 27.832 191.49 27.832V27.831ZM226.817 28.459H229.477V53.18C229.477 55.0527 229.231 56.7773 228.738 58.354C228.27 59.9553 227.519 61.3223 226.484 62.455C225.474 63.613 224.181 64.5247 222.604 65.19C221.003 65.8553 219.106 66.188 216.914 66.188C215.805 66.188 214.696 66.0893 213.588 65.892C212.479 65.6947 211.481 65.4607 210.594 65.19C209.51 64.87 208.488 64.525 207.527 64.155L208.267 61.088C209.129 61.5067 210.028 61.8887 210.964 62.234C211.752 62.5047 212.663 62.7633 213.698 63.01C214.733 63.2567 215.804 63.38 216.913 63.38C218.465 63.38 219.771 63.1703 220.83 62.751C221.89 62.3323 222.765 61.8027 223.454 61.162C224.119 60.546 224.637 59.8317 225.006 59.019C225.4 58.2303 225.671 57.442 225.819 56.654C225.967 55.8653 226.065 55.1263 226.114 54.437C226.139 53.747 226.151 53.1803 226.151 52.737V49.781C225.782 50.741 225.215 51.5783 224.451 52.293C223.786 52.9583 222.912 53.5497 221.828 54.067C220.744 54.5843 219.377 54.843 217.726 54.843C216.199 54.843 214.783 54.5597 213.476 53.993C212.146 53.4263 210.976 52.589 209.966 51.481C208.956 50.3723 208.168 48.9803 207.601 47.305C207.01 45.6297 206.714 43.671 206.714 41.429C206.714 37.0197 207.663 33.694 209.56 31.452C211.457 29.2107 214.179 28.0037 217.726 27.831C219.204 27.757 220.485 27.9047 221.569 28.274C222.629 28.644 223.504 29.063 224.193 29.531C224.981 30.0977 225.634 30.738 226.151 31.452L226.817 28.459V28.459ZM218.354 52.035C219.635 52.035 220.756 51.7517 221.717 51.185C222.678 50.6183 223.491 49.8423 224.156 48.857C224.846 47.8717 225.363 46.7383 225.708 45.457C226.053 44.1517 226.225 42.76 226.225 41.282C226.225 39.8287 226.102 38.4613 225.855 37.18C225.609 35.874 225.178 34.7407 224.562 33.78C223.947 32.82 223.122 32.0567 222.087 31.49C221.052 30.9233 219.734 30.64 218.133 30.64C216.68 30.64 215.46 30.9477 214.474 31.563C213.464 32.179 212.651 32.992 212.036 34.002C211.42 34.9873 210.977 36.133 210.706 37.439C210.41 38.7197 210.262 40.0373 210.262 41.392C210.262 42.7473 210.41 44.053 210.705 45.309C210.976 46.5903 211.432 47.736 212.072 48.746C212.713 49.7313 213.538 50.532 214.548 51.148C215.558 51.7393 216.827 52.035 218.354 52.035ZM247.621 27.831C248.828 27.831 250.158 28.028 251.611 28.422C253.065 28.816 254.408 29.5427 255.64 30.602C256.896 31.662 257.931 33.091 258.744 34.889C259.581 36.6623 260 38.9533 260 41.762C260 44.546 259.581 46.8247 258.744 48.598C257.931 50.3713 256.896 51.7757 255.64 52.811C254.408 53.821 253.065 54.523 251.612 54.917C250.159 55.311 248.828 55.508 247.621 55.508C246.414 55.508 245.096 55.3113 243.667 54.918C242.238 54.5233 240.908 53.821 239.677 52.811C238.469 51.7763 237.446 50.372 236.609 48.598C235.772 46.8247 235.353 44.546 235.353 41.762C235.353 38.9533 235.772 36.6623 236.609 34.889C237.446 33.0903 238.469 31.6613 239.676 30.602C240.908 29.5427 242.238 28.816 243.666 28.422C245.095 28.028 246.414 27.831 247.621 27.831V27.831ZM247.621 52.737C250.552 52.6877 252.745 51.6777 254.198 49.707C255.651 47.7603 256.378 45.112 256.378 41.762C256.378 40.1113 256.193 38.5963 255.824 37.217C255.455 35.8617 254.9 34.6917 254.161 33.707C253.422 32.721 252.511 31.9693 251.427 31.452C250.343 30.91 249.074 30.639 247.621 30.639C246.168 30.639 244.899 30.91 243.815 31.452C242.731 31.9693 241.832 32.7207 241.117 33.706C240.378 34.6913 239.836 35.8613 239.491 37.216C239.122 38.596 238.937 40.1113 238.937 41.762C238.937 43.4127 239.122 44.9153 239.491 46.27C239.836 47.65 240.378 48.808 241.117 49.744C241.832 50.704 242.731 51.443 243.815 51.961C244.899 52.4783 246.168 52.737 247.621 52.737V52.737Z" fill="#2F1911"/>
<path d="M77.3006 72.2423C76.7112 72.2423 76.2047 71.9542 75.9466 71.4693C75.3716 70.3937 76.1218 69.1693 78.3797 65.7915C79.7374 63.7604 81.4275 61.23 82.1273 59.3598C83.8499 54.7552 84.3648 51.7194 84.7466 49.0054C85.0923 46.5494 83.8499 39.9101 81.7264 36.6762C79.4469 33.2144 77.6967 27.3649 77.9164 25.1826C78.1229 23.1396 78.9007 22.2345 79.0556 22.0736C79.2872 21.8299 79.5981 21.6763 79.9498 21.7039C80.3388 21.7123 89.5169 22.0628 94.2008 33.6885L94.3412 34.0366C97.0529 40.7635 100.768 49.9753 92.9332 60.2613C86.0358 69.3182 82.0361 71.0227 78.5298 71.9914L77.9668 72.1415C77.7504 72.2055 77.5262 72.2394 77.3006 72.2423V72.2423ZM80.5764 24.1803C80.4341 24.5809 80.3434 24.998 80.3064 25.4215C80.1671 26.8079 81.6316 32.164 83.7322 35.3558C86.109 38.9762 87.5831 46.0692 87.1233 49.3379C86.7248 52.1828 86.1834 55.3662 84.3756 60.2001C83.5774 62.332 81.8765 64.878 80.376 67.1251C79.9042 67.8297 79.3437 68.67 78.9019 69.383C81.3315 68.6088 84.9278 66.8118 91.0233 58.8065C98.0312 49.6067 94.7505 41.4706 92.1145 34.9333L91.974 34.584C88.5842 26.1669 82.5907 24.5044 80.5764 24.1803V24.1803Z" fill="url(#paint0_linear)"/>
<path d="M57.6072 75.7822C47.5552 75.7834 40.5366 70.084 40.4321 69.9964C40.2976 69.8843 40.1892 69.7442 40.1145 69.5858C40.0398 69.4274 40.0007 69.2546 39.9999 69.0795C39.9991 68.9043 40.0366 68.7312 40.1099 68.5721C40.1831 68.413 40.2902 68.2719 40.4237 68.1586C46.2936 63.1686 46.2252 57.8906 46.1448 51.7794C46.0799 46.9251 46.0139 41.9051 48.9824 36.6871C58.0801 20.7004 74.9935 28.1067 75.1603 28.1824C77.6706 29.108 79.956 30.5555 81.8657 32.4293C82.0934 32.6518 82.2235 32.9557 82.2272 33.2742C82.2309 33.5926 82.108 33.8995 81.8855 34.1272C81.6629 34.355 81.359 34.4851 81.0406 34.4888C80.7222 34.4925 80.4153 34.3696 80.1875 34.147C78.4973 32.4922 76.4743 31.2159 74.2528 30.4031C73.5614 30.0982 59.0728 23.8058 51.0687 37.8754C48.4219 42.5269 48.4843 47.2144 48.5431 51.7494C48.6187 57.5425 48.698 63.5227 43.091 68.9773C46.8158 71.5041 59.1857 78.2226 73.5062 67.8357C77.297 65.0868 80.2583 61.9154 82.3086 58.4103C82.387 58.2719 82.4921 58.1504 82.6178 58.0529C82.7435 57.9555 82.8874 57.884 83.041 57.8426C83.1946 57.8012 83.3549 57.7908 83.5126 57.8119C83.6703 57.833 83.8222 57.8853 83.9595 57.9656C84.0968 58.046 84.2168 58.1528 84.3124 58.2799C84.4081 58.407 84.4775 58.5519 84.5166 58.7061C84.5558 58.8603 84.564 59.0207 84.5406 59.1781C84.5172 59.3354 84.4628 59.4866 84.3805 59.6227C82.161 63.4159 78.9763 66.8334 74.9143 69.7791C68.6987 74.2878 62.7556 75.7822 57.6072 75.7822V75.7822Z" fill="url(#paint1_linear)"/>
<path d="M73.4438 33.1195C73.252 33.1199 73.063 33.0742 72.8925 32.9863C72.7221 32.8984 72.5752 32.7709 72.4643 32.6144C72.3534 32.458 72.2817 32.2772 72.2551 32.0873C72.2286 31.8974 72.248 31.7039 72.3118 31.523C72.4319 31.1821 75.3392 23.118 84.2796 18.3416C84.5591 18.2048 84.8808 18.1816 85.177 18.2772C85.4732 18.3727 85.7207 18.5794 85.8676 18.8538C86.0144 19.1282 86.0491 19.4488 85.9642 19.7483C85.8794 20.0477 85.6817 20.3025 85.4128 20.4591C77.3282 24.7793 74.6034 32.2444 74.5782 32.3201C74.4017 32.8122 73.9384 33.1195 73.4438 33.1195Z" fill="url(#paint2_linear)"/>
<defs>
<linearGradient id="paint0_linear" x1="70.9313" y1="36.4861" x2="90.7579" y2="45.7314" gradientUnits="userSpaceOnUse">
<stop stop-color="#B82949"/>
<stop offset="1" stop-color="#E9B84C"/>
</linearGradient>
<linearGradient id="paint1_linear" x1="36.5327" y1="25.6354" x2="76.9121" y2="44.4646" gradientUnits="userSpaceOnUse">
<stop stop-color="#B82949"/>
<stop offset="1" stop-color="#E9B84C"/>
</linearGradient>
<linearGradient id="paint2_linear" x1="69.2145" y1="31.8441" x2="81.6909" y2="37.6619" gradientUnits="userSpaceOnUse">
<stop stop-color="#B82949"/>
<stop offset="1" stop-color="#E9B84C"/>
</linearGradient>
</defs>
</svg>
